<?xml version="1.0" encoding="UTF-8" standalone="no"?>
<svg
   xmlns:dc="http://purl.org/dc/elements/1.1/"
   xmlns:cc="http://creativecommons.org/ns#"
   xmlns:rdf="http://www.w3.org/1999/02/22-rdf-syntax-ns#"
   xmlns:svg="http://www.w3.org/2000/svg"
   xmlns="http://www.w3.org/2000/svg"
   xmlns:xlink="http://www.w3.org/1999/xlink"
   width="100mm"
   height="70mm"
   viewBox="0 0 100 70"
   version="1.1"
   id="svg8">
  <defs
     id="defs2">
    <linearGradient
       id="linearGradient1493">
      <stop
         id="stop1489"
         offset="0"
         style="stop-color:#48bf00;stop-opacity:1" />
      <stop
         id="stop1491"
         offset="1"
         style="stop-color:#c9ff2f;stop-opacity:1" />
    </linearGradient>
    <filter
       style="color-interpolation-filters:sRGB"
       id="filter843"
       x="-7.7662926e-06"
       width="1.0000155"
       y="-1.7723078e-05"
       height="1.0000354">
      <feGaussianBlur
         stdDeviation="0.00021771429"
         id="feGaussianBlur845" />
    </filter>
    <linearGradient
       gradientUnits="userSpaceOnUse"
       y2="37.041668"
       x2="69.547623"
       y1="37.041668"
       x1="23.434525"
       id="linearGradient1495"
       xlink:href="#linearGradient1493" />
  </defs>
  <metadata
     id="metadata5">
    <rdf:RDF>
      <cc:Work
         rdf:about="">
        <dc:format>image/svg+xml</dc:format>
        <dc:type
           rdf:resource="http://purl.org/dc/dcmitype/StillImage" />
        <dc:title></dc:title>
      </cc:Work>
    </rdf:RDF>
  </metadata>
  <g
     id="layer1"
     style="opacity:0.996;filter:url(#filter843)">
    <rect
       style="opacity:1;fill:url(#linearGradient1495);fill-opacity:1;stroke-width:1.49526;stroke-linecap:round;stroke-linejoin:round;paint-order:markers fill stroke"
       id="rect833"
       width="53.483635"
       height="36.85268"
       x="16.819939"
       y="16.348211" />
    <path
       id="path856"
       style="opacity:1;fill:#000000;fill-opacity:1;stroke:none;stroke-width:1;stroke-linecap:round;stroke-linejoin:bevel;stroke-miterlimit:4;stroke-dasharray:none;paint-order:markers fill stroke"
       d="m 17.57567,9.9083643 c -3.581443,0 -6.533449,2.9514827 -6.533449,6.5329327 v 36.664426 c 0,3.58144 2.950821,6.535 6.533449,6.535 h 64.255506 c 3.58262,0 6.53552,-2.95238 6.53552,-6.535 V 16.441297 c 0,-3.58263 -2.95408,-6.5329327 -6.53552,-6.5329327 z m 0,2.1869447 h 64.256026 c 2.40808,0 4.34702,1.938415 4.34702,4.346507 v 36.663907 c 0,2.40808 -1.93894,4.34651 -4.34702,4.34651 H 17.57567 c -2.408084,0 -4.346504,-1.93843 -4.346504,-4.34651 V 16.441816 c 0,-2.408092 1.93842,-4.346507 4.346504,-4.346507 z" />
    <rect
       style="opacity:1;fill:#000000;fill-opacity:1;stroke:none;stroke-width:0.912871;stroke-linecap:round;stroke-linejoin:bevel;stroke-miterlimit:4;stroke-dasharray:none;paint-order:markers fill stroke"
       id="rect860"
       width="5.6696424"
       height="20.221727"
       x="86.178574"
       y="24.663687"
       ry="3.0238094" />
  </g>
</svg>
